# xmcd
#
# Track frame offsets:
#	150
#	16931
#	41310
#	72046
#	89278
#	111588
#
# Disc length: 1691 seconds
#
# Revision: 0
# Processed by: cddbd v1.5.2PL0 Copyright (c) Steve Scherf et al.
# Submitted via: audiograbber 1.83.01
#
DISCID=43069906
DTITLE=For Heaven´s Sike - When your best friend must go
DYEAR=1900
DGENRE=World
TTITLE0=Waiting Game
TTITLE1=Living in a dream
TTITLE2=When your best friend must go
TTITLE3=Black cat
TTITLE4=I´m coming home
TTITLE5=I do it for you
EXTD=Komponist Raymond Langmantl, Schierling
EXTT0=
EXTT1=
EXTT2=
EXTT3=
EXTT4=
EXTT5=
PLAYORDER=
